<svg width="27" height="27" viewBox="0 0 27 27" fill="none" xmlns="http://www.w3.org/2000/svg">
<path fill-rule="evenodd" clip-rule="evenodd" d="M20.0009 16.9047L25.6924 22.596C26.5472 23.451 26.5472 24.8371 25.6924 25.6921C24.8373 26.547 23.4511 26.547 22.5961 25.6921L16.9046 20.0006C16.8875 19.9835 16.8733 19.9647 16.8592 19.9459C16.8483 19.9315 16.8374 19.917 16.8251 19.9033C15.1264 21.0232 13.093 21.6768 10.9061 21.6768C4.95747 21.6768 0.135254 16.8544 0.135254 10.9059C0.135254 4.95733 4.95758 0.13501 10.9062 0.13501C16.8548 0.13501 21.6771 4.95733 21.6771 10.906C21.6771 13.0928 21.0235 15.1263 19.9036 16.8251C19.9172 16.8373 19.9316 16.8481 19.946 16.859C19.9649 16.8732 19.9837 16.8875 20.0009 16.9047ZM3.86909 10.9059C3.86909 14.7924 7.01963 17.9429 10.9062 17.9429C14.7925 17.9429 17.9431 14.7924 17.9431 10.9059C17.9431 7.01949 14.7925 3.86884 10.9062 3.86884C7.01974 3.86884 3.86909 7.01939 3.86909 10.9059Z" fill="white"/>
</svg>
